<?xml version="1.0" standalone="yes"?>
<svg xmlns="http://www.w3.org/2000/svg" width="170" height="170">
<path style="fill:#592c48; stroke:none;" d="M79 8.42438C62.4357 10.5982 46.3666 11.5338 30 15.6265C25.9586 16.6371 16.7411 17.3858 14.5887 21.4298C10.909 28.3433 12.9643 40.4271 13.0008 48C13.1633 81.6989 29.5342 117.286 53.0039 141C59.2393 147.3 75.1224 164.87 85 163.764C95.0402 162.639 107.333 148.732 113.996 142C137.44 118.312 151.222 86.8683 155.155 54C156.142 45.7555 159.135 28.8196 154.566 21.419C151.753 16.8627 140.86 15.8771 136 14.7932C118.223 10.8291 97.2393 6.03069 79 8.42438z"/>
<path style="fill:#dc5e5d; stroke:none;" d="M63 9L64 10L63 9M105 9L106 10L105 9z"/>
<path style="fill:#dc5e5d; stroke:none;" d="M55 10L56 11L55 10M113 10L114 11L113 10z"/>
<path style="fill:#dc5e5d; stroke:none;" d="M49 11L50 12L49 11M120 11L121 12L120 11z"/>
<path style="fill:#dc5e5d; stroke:none;" d="M43 12L44 13L43 12M125 12L126 13L125 12z"/>
<path style="fill:#df866e; stroke:none;" d="M126.667 12.3333L127.333 12.6667L126.667 12.3333M36.6667 13.3333L37.3333 13.6667L36.6667 13.3333z"/>
<path style="fill:#dc5e5d; stroke:none;" d="M38 13L39 14L38 13M130 13L131 14L130 13z"/>
<path style="fill:#df866e; stroke:none;" d="M131.667 13.3333L132.333 13.6667L131.667 13.3333M32.6667 14.3333L33.3333 14.6667L32.6667 14.3333z"/>
<path style="fill:#dc5e5d; stroke:none;" d="M34 14L35 15L34 14M134 14L135 15L134 14z"/>
<path style="fill:#df866e; stroke:none;" d="M135.667 14.3333L136.333 14.6667L135.667 14.3333M28.6667 15.3333L29.3333 15.6667L28.6667 15.3333z"/>
<path style="fill:#dc5e5d; stroke:none;" d="M30 15L31 16L30 15M70.6667 15.3333L71.3333 15.6667L70.6667 15.3333z"/>
<path style="fill:#dc5e5d; stroke:none;" d="M97.6667 15.3333L98.3333 15.6667L97.6667 15.3333z"/>
<path style="fill:#df866e; stroke:none;" d="M139.667 15.3333L140.333 15.6667L139.667 15.3333M24.6667 16.3333L25.3333 16.6667L24.6667 16.3333z"/>
<path style="fill:#dc5e5d; stroke:none;" d="M26 16L27 17L26 16z"/>
<path style="fill:#f9f9f9; stroke:none;" d="M66 16.4244C54.8406 17.9076 43.9365 19.6393 33 22.3735C29.2981 23.2989 23.5084 23.7018 21.3179 27.2785C17.2888 33.8575 20.0545 47.7184 20.8341 55C23.9919 84.4956 36.1957 110.562 55.4282 133C60.6563 139.099 76.0385 156.384 85 155.262C92.8886 154.275 103.672 142.472 108.91 136.985C129.282 115.65 142.285 89.0206 147.08 60C148.35 52.3188 152.781 33.3079 147.821 26.5633C144.558 22.1256 133.057 21.4129 128 20.3997C108.051 16.4027 86.3423 13.7207 66 16.4244z"/>
<path style="fill:#dc5e5d; stroke:none;" d="M108 16L109 17L108 16M142 16L143 17L142 16z"/>
<path style="fill:#df866e; stroke:none;" d="M143.667 16.3333L144.333 16.6667L143.667 16.3333M21.6667 17.3333L22.3333 17.6667L21.6667 17.3333z"/>
<path style="fill:#dc5e5d; stroke:none;" d="M53 17L54 18L53 17z"/>
<path style="fill:#dc5e5d; stroke:none;" d="M115 17L116 18L115 17M146 17L147 18L146 17z"/>
<path style="fill:#df866e; stroke:none;" d="M147.667 17.3333L148.333 17.6667L147.667 17.3333M17.6667 18.3333L18.3333 18.6667L17.6667 18.3333z"/>
<path style="fill:#dc5e5d; stroke:none;" d="M19 18L20 19L19 18z"/>
<path style="fill:#dc5e5d; stroke:none;" d="M121 18L122 19L121 18z"/>
<path style="fill:#df866e; stroke:none;" d="M150.667 18.3333L151.333 18.6667L150.667 18.3333M14.6667 19.3333L15.3333 19.6667L14.6667 19.3333z"/>
<path style="fill:#dc5e5d; stroke:none;" d="M42 19L43 20L42 19z"/>
<path style="fill:#dc5e5d; stroke:none;" d="M126 19L127 20L126 19z"/>
<path style="fill:#dc5e5d; stroke:none;" d="M135 21L136 22L135 21z"/>
<path style="fill:#dc5e5d; stroke:none;" d="M155.333 22.6667L155.667 23.3333L155.333 22.6667M26 23L27 24L26 23z"/>
<path style="fill:#df866e; stroke:none;" d="M27.6667 23.3333L28.3333 23.6667L27.6667 23.3333M141.667 23.3333L142.333 23.6667L141.667 23.3333z"/>
<path style="fill:#dc5e5d; stroke:none;" d="M22 24L23 25L22 24z"/>
<path style="fill:#df866e; stroke:none;" d="M23.6667 24.3333L24.3333 24.6667L23.6667 24.3333M144.667 24.3333L145.333 24.6667L144.667 24.3333z"/>
<path style="fill:#dc5e5d; stroke:none;" d="M146 24L147 25L146 24M20 25L21 26L20 25z"/>
<path style="fill:#df866e; stroke:none;" d="M21 25L22 26L21 25z"/>
<path style="fill:#1a8ab5; stroke:none;" d="M46.4776 26.0864C42.7817 28.3852 47.3218 33.1518 49.0448 35C55.4311 41.8507 62.2149 48.5238 69 54.9799C71.0093 56.8918 74.5326 60.6695 77.5077 58.1991C80.9571 55.3349 75.9277 50.9806 73.9946 49C67.7536 42.6056 61.4576 36.1949 55 30.0193C53.0792 28.1823 49.5175 24.1956 46.4776 26.0864z"/>
<path style="fill:#df866e; stroke:none;" d="M148.333 25.6667L148.667 26.3333L148.333 25.6667z"/>
<path style="fill:#dc5e5d; stroke:none;" d="M13 26L14 27L13 26z"/>
<path style="fill:#dc5e5d; stroke:none;" d="M99 110L99 108L103 109L103 108L101 106L103 107L72 73C82.4881 67.8239 88.2452 55.5509 98.0147 49.2639C102.615 46.3033 108.472 48.5733 112.297 43.7755C118.44 36.0698 111.458 25.3262 102.004 27.3981C93.0929 29.3511 93.868 41.8326 88.5741 48C83.1668 54.2994 76.8128 60.0625 70.9861 65.9961C68.8997 68.1208 64.5211 70.9931 64.0602 74.1698C63.5098 77.9627 68.6789 81.674 71 84C79.2743 92.2919 88.3284 105.023 99 110z"/>
<path style="fill:#1a8ab5; stroke:none;" d="M81 66C83.9985 70.2567 92.3167 81.7932 98 81.7932C101.503 81.7932 104.773 77.222 107 75L129 53C131.843 50.1571 147.327 38.2429 142.377 33.662C139.946 31.4118 136.758 34.4658 135 36.0594C129.092 41.4144 123.638 47.3621 118 53C112.61 58.3898 107.283 65.3751 101 69.7037C93.1249 75.129 90.4208 58.3075 81 66z"/>
<path style="fill:#f9f9f9; stroke:none;" d="M102.757 35.0826C99.8952 37.1409 103.613 41.621 106.204 39.1535C108.476 36.9897 105.229 33.3048 102.757 35.0826z"/>
<path style="fill:#dc5e5d; stroke:none;" d="M155 51L156 52L155 51z"/>
<path style="fill:#dc5e5d; stroke:none;" d="M148 54L149 55L148 54M13 55L14 56L13 55z"/>
<path style="fill:#592c48; stroke:none;" d="M79 56L80 57L79 56z"/>
<path style="fill:#dc5e5d; stroke:none;" d="M20 58L21 59L20 58z"/>
<path style="fill:#df866e; stroke:none;" d="M88 58L89 59L88 58z"/>
<path style="fill:#592c48; stroke:none;" d="M76 59L77 60L76 59z"/>
<path style="fill:#dc5e5d; stroke:none;" d="M154 59L155 60L154 59z"/>
<path style="fill:#592c48; stroke:none;" d="M85 61L86 62L85 61z"/>
<path style="fill:#dc5e5d; stroke:none;" d="M147 61L148 62L147 61z"/>
<path style="fill:#df866e; stroke:none;" d="M74 62L75 63L74 62z"/>
<path style="fill:#592c48; stroke:none;" d="M84 62L85 63L84 62z"/>
<path style="fill:#df866e; stroke:none;" d="M87 62L88 63L87 62z"/>
<path style="fill:#dc5e5d; stroke:none;" d="M14 63L15 64L14 63z"/>
<path style="fill:#df866e; stroke:none;" d="M73 63L74 64L73 63z"/>
<path style="fill:#592c48; stroke:none;" d="M83 63L84 64L83 63z"/>
<path style="fill:#dc5e5d; stroke:none;" d="M21 64L22 65L21 64z"/>
<path style="fill:#df866e; stroke:none;" d="M72 64L73 65L72 64z"/>
<path style="fill:#592c48; stroke:none;" d="M82 64L83 65L82 64z"/>
<path style="fill:#df866e; stroke:none;" d="M71 65L72 66L71 65z"/>
<path style="fill:#592c48; stroke:none;" d="M81 65L82 66L81 65z"/>
<path style="fill:#dc5e5d; stroke:none;" d="M153 65L154 66L153 65z"/>
<path style="fill:#dc5e5d; stroke:none;" d="M146 66L147 67L146 66z"/>
<path style="fill:#dc5e5d; stroke:none;" d="M22 69L23 70L22 69z"/>
<path style="fill:#dc5e5d; stroke:none;" d="M152 70L153 71L152 70z"/>
<path style="fill:#dc5e5d; stroke:none;" d="M145 71L146 72L145 71z"/>
<path style="fill:#df866e; stroke:none;" d="M152.333 71.6667L152.667 72.3333L152.333 71.6667M74 72L75 73L74 72M101 104L101 105L103 107L101 106L103 108L103 109L99 108L99 110L96 109C93.451 112.161 86.5352 120.998 82.0015 119.793C71.8852 117.105 79.1323 101.278 67 99.2323C58.3386 97.7719 50.9353 106.932 55.3179 114.956C59.145 121.962 69.2193 120.557 74.9606 125.836C77.0044 127.715 79.9663 131.835 83.0394 131.797C92.3116 131.682 94.3207 114.773 105 119L101 113L105 108L106 108L115 118L107 110C115.665 101.335 124.414 92.7466 132.995 84C135.043 81.9132 140.783 77.0033 137.377 73.7863C133.974 70.5712 129.632 75.7425 127.579 78.0008C119.237 87.1778 109.793 95.2801 101 104M144 72L144 75L145 75L144 72z"/>
<path style="fill:#dc5e5d; stroke:none;" d="M16 73L17 74L16 73z"/>
<path style="fill:#dc5e5d; stroke:none;" d="M135.667 74.3333L136.333 74.6667L135.667 74.3333M151 74L152 75L151 74z"/>
<path style="fill:#dc5e5d; stroke:none;" d="M132 75L130 78L132 75z"/>
<path style="fill:#df866e; stroke:none;" d="M151.333 75.6667L151.667 76.3333L151.333 75.6667M63 76L64 77L63 76M73 76L74 77L73 76z"/>
<path style="fill:#dc5e5d; stroke:none;" d="M134 76L135 77L134 76M137 76L138 77L137 76z"/>
<path style="fill:#df866e; stroke:none;" d="M143.333 76.6667L143.667 77.3333L143.333 76.6667z"/>
<path style="fill:#dc5e5d; stroke:none;" d="M17 77L18 78L17 77z"/>
<path style="fill:#dc5e5d; stroke:none;" d="M132 78L133 79L132 78M143 78L144 79L143 78M150 78L151 79L150 78z"/>
<path style="fill:#df866e; stroke:none;" d="M25.3333 79.6667L25.6667 80.3333L25.3333 79.6667M66 79L67 80L66 79z"/>
<path style="fill:#dc5e5d; stroke:none;" d="M128 79L127 81L128 79z"/>
<path style="fill:#df866e; stroke:none;" d="M150 79L151 80L150 79M67 80L68 81L67 80M77 80L78 81L77 80z"/>
<path style="fill:#df866e; stroke:none;" d="M142 80L143 81L142 80M18.3333 81.6667L18.6667 82.3333L18.3333 81.6667z"/>
<path style="fill:#dc5e5d; stroke:none;" d="M25 81L26 82L25 81z"/>
<path style="fill:#df866e; stroke:none;" d="M68 81L69 82L68 81M78 81L79 82L78 81z"/>
<path style="fill:#dc5e5d; stroke:none;" d="M142 81L143 82L142 81M149 81L150 82L149 81z"/>
<path style="fill:#df866e; stroke:none;" d="M26.3333 82.6667L26.6667 83.3333L26.3333 82.6667M69 82L70 83L69 82M79 82L80 83L79 82z"/>
<path style="fill:#dc5e5d; stroke:none;" d="M125.667 82.3333L126.333 82.6667L125.667 82.3333z"/>
<path style="fill:#df866e; stroke:none;" d="M149.333 82.6667L149.667 83.3333L149.333 82.6667M70 83L71 84L70 83M80 83L81 84L80 83z"/>
<path style="fill:#dc5e5d; stroke:none;" d="M130 83L131 84L130 83z"/>
<path style="fill:#df866e; stroke:none;" d="M141 83L142 84L141 83z"/>
<path style="fill:#dc5e5d; stroke:none;" d="M19 84L20 85L19 84M26 84L27 85L26 84z"/>
<path style="fill:#df866e; stroke:none;" d="M71 84L72 85L71 84M81 84L82 85L81 84z"/>
<path style="fill:#dc5e5d; stroke:none;" d="M141 84L142 85L141 84z"/>
<path style="fill:#df866e; stroke:none;" d="M19 85L20 86L19 85M27.3333 85.6667L27.6667 86.3333L27.3333 85.6667M72 85L73 86L72 85M82 85L83 86L82 85z"/>
<path style="fill:#df866e; stroke:none;" d="M148.333 85.6667L148.667 86.3333L148.333 85.6667M73 86L74 87L73 86M83 86L84 87L83 86M140 86L141 87L140 86z"/>
<path style="fill:#dc5e5d; stroke:none;" d="M20 87L21 88L20 87z"/>
<path style="fill:#df866e; stroke:none;" d="M74 87L75 88L74 87M84 87L85 88L84 87z"/>
<path style="fill:#dc5e5d; stroke:none;" d="M120 87L121 88L120 87M140 87L141 88L140 87M147 87L148 88L147 87z"/>
<path style="fill:#df866e; stroke:none;" d="M20 88L21 89L20 88M28.3333 88.6667L28.6667 89.3333L28.3333 88.6667M75 88L76 89L75 88M85 88L86 89L85 88z"/>
<path style="fill:#dc5e5d; stroke:none;" d="M125 88L126 89L125 88z"/>
<path style="fill:#df866e; stroke:none;" d="M139.333 88.6667L139.667 89.3333L139.333 88.6667M147.333 88.6667L147.667 89.3333L147.333 88.6667M76 89L77 90L76 89M86 89L87 90L86 89M21.3333 90.6667L21.6667 91.3333L21.3333 90.6667M77 90L78 91L77 90M87 90L88 91L87 90z"/>
<path style="fill:#dc5e5d; stroke:none;" d="M117 90L118 91L117 90z"/>
<path style="fill:#df866e; stroke:none;" d="M122 90L123 91L122 90z"/>
<path style="fill:#dc5e5d; stroke:none;" d="M146 90L147 91L146 90z"/>
<path style="fill:#df866e; stroke:none;" d="M29 91L30 92L29 91M78 91L79 92L78 91M88 91L89 92L88 91M138 91L139 92L138 91M146 91L147 92L146 91z"/>
<path style="fill:#dc5e5d; stroke:none;" d="M29 92L30 93L29 92z"/>
<path style="fill:#df866e; stroke:none;" d="M79 92L80 93L79 92M89 92L90 93L89 92z"/>
<path style="fill:#dc5e5d; stroke:none;" d="M118 92L117 94L118 92M138 92L139 93L138 92z"/>
<path style="fill:#df866e; stroke:none;" d="M22.3333 93.6667L22.6667 94.3333L22.3333 93.6667M30.3333 93.6667L30.6667 94.3333L30.3333 93.6667M80 93L81 94L80 93M90 93L91 94L90 93z"/>
<path style="fill:#df866e; stroke:none;" d="M137.333 93.6667L137.667 94.3333L137.333 93.6667M145.333 93.6667L145.667 94.3333L145.333 93.6667M81 94L82 95L81 94M91 94L92 95L91 94z"/>
<path style="fill:#dc5e5d; stroke:none;" d="M23 95L24 96L23 95z"/>
<path style="fill:#df866e; stroke:none;" d="M82 95L83 96L82 95M92 95L93 96L92 95z"/>
<path style="fill:#dc5e5d; stroke:none;" d="M144 95L145 96L144 95z"/>
<path style="fill:#df866e; stroke:none;" d="M23 96L24 97L23 96M31 96L32 97L31 96M83 96L84 97L83 96M93 96L94 97L93 96M136 96L137 97L136 96M144 96L145 97L144 96M84 97L85 98L84 97M94 97L95 98L94 97M24 98L25 99L24 98M32 98L33 99L32 98M85 98L86 99L85 98M95 98L96 99L95 98z"/>
<path style="fill:#dc5e5d; stroke:none;" d="M106 102L111 99L106 102M115 98L116 99L115 98z"/>
<path style="fill:#df866e; stroke:none;" d="M135 98L136 99L135 98M143 98L144 99L143 98M86 99L87 100L86 99M96 99L97 100L96 99M25 100L26 101L25 100M33 100L34 101L33 100z"/>
<path style="fill:#dc5e5d; stroke:none;" d="M65.6667 100.333L66.3333 100.667L65.6667 100.333z"/>
<path style="fill:#df866e; stroke:none;" d="M87 100L88 101L87 100M97 100L98 101L97 100M134 100L135 101L134 100M142.333 100.667L142.667 101.333L142.333 100.667z"/>
<path style="fill:#df866e; stroke:none;" d="M88 101L89 102L88 101M98 101L99 102L98 101M26.3333 102.667L26.6667 103.333L26.3333 102.667M34 102L35 103L34 102z"/>
<path style="fill:#dc5e5d; stroke:none;" d="M58 102L59 103L58 102z"/>
<path style="fill:#df866e; stroke:none;" d="M89 102L90 103L89 102M99 102L100 103L99 102z"/>
<path style="fill:#dc5e5d; stroke:none;" d="M108.667 102.333L109.333 102.667L108.667 102.333z"/>
<path style="fill:#df866e; stroke:none;" d="M133 102L134 103L133 102M141.333 102.667L141.667 103.333L141.333 102.667z"/>
<path style="fill:#dc5e5d; stroke:none;" d="M34 103L35 104L34 103z"/>
<path style="fill:#df866e; stroke:none;" d="M90 103L91 104L90 103M100 103L101 104L100 103z"/>
<path style="fill:#df866e; stroke:none;" d="M35 104L36 105L35 104M91 104L92 105L91 104M104 104L105 105L104 104M132 104L133 105L132 104M140.333 104.667L140.667 105.333L140.333 104.667M27 105L28 106L27 105z"/>
<path style="fill:#dc5e5d; stroke:none;" d="M68 105L69 106L68 105z"/>
<path style="fill:#df866e; stroke:none;" d="M92 105L93 106L92 105M28.3333 106.667L28.6667 107.333L28.3333 106.667M36 106L37 107L36 106z"/>
<path style="fill:#f9f9f9; stroke:none;" d="M64.26 107.06C61.0445 107.699 62.4992 113.313 65.7361 112.248C68.6714 111.283 67.1974 106.477 64.26 107.06z"/>
<path style="fill:#dc5e5d; stroke:none;" d="M73.3333 106.667L73.6667 107.333L73.3333 106.667z"/>
<path style="fill:#df866e; stroke:none;" d="M93 106L94 107L93 106z"/>
<path style="fill:#dc5e5d; stroke:none;" d="M106 106L107 107L106 106z"/>
<path style="fill:#df866e; stroke:none;" d="M131 106L132 107L131 106M139 106L140 107L139 106z"/>
<path style="fill:#df866e; stroke:none;" d="M94 107L95 108L94 107M130.333 107.667L130.667 108.333L130.333 107.667M29 108L30 109L29 108M37 108L38 109L37 108M95 108L96 109L95 108z"/>
<path style="fill:#dc5e5d; stroke:none;" d="M105 108L101 113C102.115 115.37 111.95 127.653 114.338 121.663C116.223 116.935 107.95 110.727 105 108z"/>
<path style="fill:#df866e; stroke:none;" d="M138 108L139 109L138 108M38 109L39 110L38 109z"/>
<path style="fill:#df866e; stroke:none;" d="M129 109L130 110L129 109M30 110L31 111L30 110z"/>
<path style="fill:#dc5e5d; stroke:none;" d="M38 110L39 111L38 110M102 110L103 111L102 110M129 110L130 111L129 110z"/>
<path style="fill:#df866e; stroke:none;" d="M137 110L138 111L137 110M39 111L40 112L39 111z"/>
<path style="fill:#dc5e5d; stroke:none;" d="M99.3333 111.667L99.6667 112.333L99.3333 111.667z"/>
<path style="fill:#df866e; stroke:none;" d="M128 111L129 112L128 111M31 112L32 113L31 112z"/>
<path style="fill:#dc5e5d; stroke:none;" d="M95 112L95 113L98 114L95 112z"/>
<path style="fill:#df866e; stroke:none;" d="M136 112L137 113L136 112M40 113L41 114L40 113z"/>
<path style="fill:#dc5e5d; stroke:none;" d="M56 115L59 114L56 115z"/>
<path style="fill:#df866e; stroke:none;" d="M127 113L128 114L127 113z"/>
<path style="fill:#dc5e5d; stroke:none;" d="M135 113L136 114L135 113z"/>
<path style="fill:#df866e; stroke:none;" d="M32 114L33 115L32 114M41 114L42 115L41 114z"/>
<path style="fill:#dc5e5d; stroke:none;" d="M63 114L64 115L63 114M93 114L94 115L93 114z"/>
<path style="fill:#df866e; stroke:none;" d="M126 114L127 115L126 114M135 114L136 115L135 114z"/>
<path style="fill:#df866e; stroke:none;" d="M134 115L135 116L134 115M42 116L43 117L42 116z"/>
<path style="fill:#df866e; stroke:none;" d="M125 116L126 117L125 116M34 117L35 118L34 117M43 117L44 118L43 117z"/>
<path style="fill:#dc5e5d; stroke:none;" d="M96 117L97 118L96 117z"/>
<path style="fill:#df866e; stroke:none;" d="M124 117L125 118L124 117M133 117L134 118L133 117z"/>
<path style="fill:#dc5e5d; stroke:none;" d="M35 118L36 119L35 118M43 118L44 119L43 118z"/>
<path style="fill:#df866e; stroke:none;" d="M132 118L133 119L132 118M35 119L36 120L35 119M44 119L45 120L44 119z"/>
<path style="fill:#dc5e5d; stroke:none;" d="M88 119L89 120L88 119z"/>
<path style="fill:#dc5e5d; stroke:none;" d="M93 120L94 121L93 120z"/>
<path style="fill:#df866e; stroke:none;" d="M107 120L108 121L107 120M122 120L123 121L122 120M131 120L132 121L131 120z"/>
<path style="fill:#df866e; stroke:none;" d="M108 121L109 122L108 121M121 121L122 122L121 121M130 121L131 122L130 121M37 122L38 123L37 122M46 122L47 123L46 122M109 122L110 123L109 122z"/>
<path style="fill:#dc5e5d; stroke:none;" d="M121 122L122 123L121 122z"/>
<path style="fill:#df866e; stroke:none;" d="M38 123L39 124L38 123M47 123L48 124L47 123M110 123L111 124L110 123M114 123L115 124L114 123M120 123L121 124L120 123M129 123L130 124L129 123M39 124L40 125L39 124M48 124L49 125L48 124z"/>
<path style="fill:#dc5e5d; stroke:none;" d="M80 124L81 125L80 124z"/>
<path style="fill:#df866e; stroke:none;" d="M111.667 124.333L112.333 124.667L111.667 124.333M119 124L120 125L119 124M128 124L129 125L128 124M49 125L50 126L49 125M118 125L119 126L118 125M40 126L41 127L40 126z"/>
<path style="fill:#dc5e5d; stroke:none;" d="M49 126L50 127L49 126M118 126L119 127L118 126z"/>
<path style="fill:#df866e; stroke:none;" d="M127 126L128 127L127 126M41 127L42 128L41 127M50 127L51 128L50 127M117 127L118 128L117 127M126 127L127 128L126 127z"/>
<path style="fill:#dc5e5d; stroke:none;" d="M42 128L43 129L42 128z"/>
<path style="fill:#df866e; stroke:none;" d="M51 128L52 129L51 128M116 128L117 129L116 128M125 128L126 129L125 128M52 129L53 130L52 129z"/>
<path style="fill:#dc5e5d; stroke:none;" d="M84 129L85 130L84 129z"/>
<path style="fill:#df866e; stroke:none;" d="M115 129L116 130L115 129M43 130L44 131L43 130M53 130L54 131L53 130M114 130L115 131L114 130M124 130L125 131L124 130M44 131L45 132L44 131M54 131L55 132L54 131M113 131L114 132L113 131M123 131L124 132L123 131M45 132L46 133L45 132M112 132L113 133L112 132M122 132L123 133L122 132M46 133L47 134L46 133M121 133L122 134L121 133z"/>
<path style="fill:#dc5e5d; stroke:none;" d="M56 134L57 135L56 134M111 134L112 135L111 134M120 134L121 135L120 134M57 135L58 136L57 135M110 135L111 136L110 135z"/>
<path style="fill:#df866e; stroke:none;" d="M48 136L49 137L48 136z"/>
<path style="fill:#dc5e5d; stroke:none;" d="M58 136L59 137L58 136M109 136L110 137L109 136z"/>
<path style="fill:#df866e; stroke:none;" d="M49 137L50 138L49 137M59 137L60 138L59 137M108 137L109 138L108 137M118 137L119 138L118 137M50 138L51 139L50 138M60 138L61 139L60 138M107 138L108 139L107 138M117 138L118 139L117 138M51 139L52 140L51 139z"/>
<path style="fill:#dc5e5d; stroke:none;" d="M61 139L62 140L61 139M106 139L107 140L106 139z"/>
<path style="fill:#df866e; stroke:none;" d="M116 139L117 140L116 139M52 140L53 141L52 140z"/>
<path style="fill:#dc5e5d; stroke:none;" d="M62 140L63 141L62 140M105 140L106 141L105 140z"/>
<path style="fill:#df866e; stroke:none;" d="M115 140L116 141L115 140M53 141L54 142L53 141z"/>
<path style="fill:#dc5e5d; stroke:none;" d="M104 141L105 142L104 141z"/>
<path style="fill:#df866e; stroke:none;" d="M114 141L115 142L114 141M54 142L55 143L54 142M65 142L66 143L65 142M102 142L103 143L102 142z"/>
<path style="fill:#dc5e5d; stroke:none;" d="M103 142L104 143L103 142z"/>
<path style="fill:#df866e; stroke:none;" d="M113 142L114 143L113 142M55 143L56 144L55 143M66 143L67 144L66 143M101 143L102 144L101 143M112 143L113 144L112 143M56 144L57 145L56 144M67 144L68 145L67 144M100 144L101 145L100 144M111 144L112 145L111 144M57 145L58 146L57 145M68 145L69 146L68 145M99 145L100 146L99 145M110 145L111 146L110 145M58 146L59 147L58 146M69 146L70 147L69 146M98 146L99 147L98 146M109 146L110 147L109 146M59 147L60 148L59 147M71 147L72 148L71 147z"/>
<path style="fill:#dc5e5d; stroke:none;" d="M97 147L98 148L97 147z"/>
<path style="fill:#df866e; stroke:none;" d="M108 147L109 148L108 147M60 148L61 149L60 148M72 148L73 149L72 148M95 148L96 149L95 148M107 148L108 149L107 148z"/>
<path style="fill:#dc5e5d; stroke:none;" d="M62 149L63 150L62 149z"/>
<path style="fill:#df866e; stroke:none;" d="M73 149L74 150L73 149M94 149L95 150L94 149M106 149L107 150L106 149M63 150L64 151L63 150z"/>
<path style="fill:#dc5e5d; stroke:none;" d="M74 150L75 151L74 150z"/>
<path style="fill:#df866e; stroke:none;" d="M75 150L76 151L75 150M93 150L94 151L93 150z"/>
<path style="fill:#dc5e5d; stroke:none;" d="M104 150L105 151L104 150z"/>
<path style="fill:#df866e; stroke:none;" d="M64 151L65 152L64 151M76 151L77 152L76 151M91 151L92 152L91 151z"/>
<path style="fill:#dc5e5d; stroke:none;" d="M92 151L93 152L92 151z"/>
<path style="fill:#df866e; stroke:none;" d="M103 151L104 152L103 151M65 152L66 153L65 152z"/>
<path style="fill:#dc5e5d; stroke:none;" d="M77 152L78 153L77 152z"/>
<path style="fill:#df866e; stroke:none;" d="M90 152L91 153L90 152M102 152L103 153L102 152M79 153L80 154L79 153M89 153L90 154L89 153M101 153L102 154L101 153M68 154L69 155L68 154M80 154L81 155L80 154M87 154L88 155L87 154M100 154L101 155L100 154M69 155L70 156L69 155M82 155L83 156L82 155M86 155L87 156L86 155M98 155L99 156L98 155M70 156L71 157L70 156z"/>
<path style="fill:#dc5e5d; stroke:none;" d="M71 156L72 157L71 156M83 156L84 157L83 156z"/>
<path style="fill:#df866e; stroke:none;" d="M84 156L85 157L84 156M97 156L98 157L97 156M72 157L73 158L72 157M73 158L74 159L73 158M94 158L95 159L94 158M75 159L76 160L75 159M93 159L94 160L93 159M76 160L77 161L76 160M91 160L92 161L91 160M78 161L79 162L78 161M90 161L91 162L90 161M79 162L80 163L79 162z"/>
<path style="fill:#dc5e5d; stroke:none;" d="M80 162L81 163L80 162z"/>
<path style="fill:#df866e; stroke:none;" d="M88 162L89 163L88 162M81 163L82 164L81 163z"/>
<path style="fill:#dc5e5d; stroke:none;" d="M86 163L87 164L86 163z"/>
<path style="fill:#df866e; stroke:none;" d="M87 163L88 164L87 163M83 164L84 165L83 164M85 164L86 165L85 164z"/>
</svg>
